<svg width="200" height="200" viewBox="0 0 200 200" xmlns="http://www.w3.org/2000/svg">
  <!-- Background circle -->
  <circle cx="100" cy="100" r="95" fill="none" stroke="#374151" stroke-width="2"/>
  
  <!-- Laurel wreath -->
  <g fill="#374151">
    <!-- Left side laurel leaves -->
    <path d="M30 80 Q40 70 50 75 Q60 80 65 85 Q70 90 75 95 Q80 100 75 105 Q70 110 65 115 Q60 120 50 125 Q40 130 30 120 Z"/>
    <path d="M35 90 Q45 80 55 85 Q65 90 70 95 Q75 100 70 105 Q65 110 55 115 Q45 120 35 110 Z"/>
    <path d="M40 100 Q50 90 60 95 Q70 100 75 105 Q80 110 75 115 Q70 120 60 125 Q50 130 40 120 Z"/>
    
    <!-- Right side laurel leaves -->
    <path d="M170 80 Q160 70 150 75 Q140 80 135 85 Q130 90 125 95 Q120 100 125 105 Q130 110 135 115 Q140 120 150 125 Q160 130 170 120 Z"/>
    <path d="M165 90 Q155 80 145 85 Q135 90 130 95 Q125 100 130 105 Q135 110 145 115 Q155 120 165 110 Z"/>
    <path d="M160 100 Q150 90 140 95 Q130 100 125 105 Q120 110 125 115 Q130 120 140 125 Q150 130 160 120 Z"/>
    
    <!-- Top laurel leaves -->
    <path d="M90 30 Q100 20 110 30 Q120 40 115 50 Q110 60 100 65 Q90 60 85 50 Q80 40 90 30 Z"/>
    <path d="M85 40 Q95 30 105 40 Q115 50 110 60 Q105 70 95 75 Q85 70 80 60 Q75 50 85 40 Z"/>
  </g>
  
  <!-- Scale of Justice -->
  <g stroke="#374151" stroke-width="3" fill="none">
    <!-- Central pillar -->
    <line x1="100" y1="60" x2="100" y2="140"/>
    
    <!-- Top finial -->
    <circle cx="100" cy="55" r="8" fill="#374151"/>
    
    <!-- Horizontal beam -->
    <line x1="60" y1="80" x2="140" y2="80"/>
    
    <!-- Left scale pan -->
    <circle cx="60" cy="80" r="15" fill="none"/>
    <path d="M60 65 L60 80"/>
    
    <!-- Right scale pan -->
    <circle cx="140" cy="80" r="15" fill="none"/>
    <path d="M140 65 L140 80"/>
    
    <!-- Hanging strings -->
    <line x1="60" y1="65" x2="60" y2="80"/>
    <line x1="140" y1="65" x2="140" y2="80"/>
  </g>
  
  <!-- Banner at bottom -->
  <path d="M70 160 Q100 170 130 160 Q125 165 100 175 Q75 165 70 160 Z" fill="#374151"/>
  
  <!-- Banner ends -->
  <path d="M65 160 Q70 165 70 160 Q70 155 65 160 Z" fill="#374151"/>
  <path d="M135 160 Q130 165 130 160 Q130 155 135 160 Z" fill="#374151"/>
</svg> 